# xmcd
# 
# Track frame offsets:
#     150
#     11052
#     30540
#     43195
#     62592
#     89410
#     107437
#     127587
#     161117
#     201657
#     227115
#     260282
#     274402
#     294955
#     296710
# 
# Disc length: 4366
# 
# Revision: 8
# Processed by: cddbd v1.5.2PL0 Copyright (c) Steve Scherf et al.
# Submitted via: fre:ac v1.0.17
# 
DISCID=d9110c0f
DTITLE=James Brown - Foundations Of Funk A Brand New Bag 1964-1969 Disc 1
DYEAR=1996
DGENRE=Funk
TTITLE0=Out Of Sight
TTITLE1=Papa's Got Brand New Bag (Parts 1 And 2)
TTITLE2=I Got You (I Feel Good)
TTITLE3=Money Won't Change You (Parts 1 And 2)
TTITLE4=Introduction Out Of Sight Bring It Up [previously unreleased live version]
TTITLE5=Let Yourself Go
TTITLE6=There Was A Time
TTITLE7=Cold Sweat (Parts 1 And 2)
TTITLE8=Get It Together (Parts 1 And 2)
TTITLE9=Goodbye My Love (Parts 1 And 2)
TTITLE10=I Can't Stand Myself (When You Touch Me) (Parts 1 And 2)
TTITLE11=I Got The Feelin' [previously unreleased extended version]
TTITLE12=The Popcorn [previously unreleased complete version]
TTITLE13=Cold Sweat [previously unreleased false start]
TTITLE14=Cold Sweat [previously unreleased alternate take]
EXTD=Foundations Of Funk (1964-1969) - Disc 1 of 2 YEAR: 1996
EXTT0=
EXTT1=
EXTT2=
EXTT3=
EXTT4=
EXTT5=
EXTT6=
EXTT7=
EXTT8=
EXTT9=
EXTT10=
EXTT11=alternate
EXTT12=alternate
EXTT13=false start and dialogue
EXTT14=altenate
PLAYORDER=
